<svg xmlns="http://www.w3.org/2000/svg" viewBox="0 0 192 192">
  <defs>
    <linearGradient id="g" x1="24" y1="40" x2="168" y2="152" gradientUnits="userSpaceOnUse">
      <stop offset="0%" stop-color="#a5b4fc"/>
      <stop offset="50%" stop-color="#6366f1"/>
      <stop offset="100%" stop-color="#4f46e5"/>
    </linearGradient>
  </defs>
  <rect width="192" height="192" rx="42" fill="#080b14"/>
  <g transform="translate(88, 96)">
    <path d="M0 -16.5 C-6.6 -25.5, -22.5 -25.5, -22.5 -12.6 C-22.5 -2.4, -9.6 10.5, 0 19.5 C9.6 10.5, 22.5 -2.4, 22.5 -12.6 C22.5 -25.5, 6.6 -25.5, 0 -16.5Z" fill="url(#g)"/>
    <path d="M30 -30 A 42 42 0 0 1 30 30" stroke="url(#g)" strokeWidth="5" opacity="0.5" fill="none" strokeLinecap="round"/>
    <path d="M42 -45 A 60 60 0 0 1 42 45" stroke="url(#g)" strokeWidth="4" opacity="0.3" fill="none" strokeLinecap="round"/>
    <path d="M54 -60 A 78 78 0 0 1 54 60" stroke="url(#g)" strokeWidth="3" opacity="0.15" fill="none" strokeLinecap="round"/>
  </g>
</svg>
